# xmcd
#
# Track frame offsets:
#	150
#	13446
#	31380
#	49182
#	62662
#	77603
#	95428
#	109996
#	131535
#	155384
#
# Disc length: 2297 seconds
#
# Revision: 0
# Processed by: cddbd v1.5.2PL0 Copyright (c) Steve Scherf et al.
# Submitted via: EasyCDDAExtractor 15.2.5.1
#
DISCID=7f08f70a
DTITLE=Mishouris Blues Band - Silly
DYEAR=2012
DGENRE=Blues
TTITLE0=Silly Thing
TTITLE1=White Trash and a Black Whore
TTITLE2=So Long
TTITLE3=See You in Hell
TTITLE4=Shoot Me Down
TTITLE5=New Orleans
TTITLE6=Jellyfish
TTITLE7=Cheating Man
TTITLE8=Homeless
TTITLE9=Stupid Butterfly
EXTD=
EXTT0=
EXTT1=
EXTT2=
EXTT3=
EXTT4=
EXTT5=
EXTT6=
EXTT7=
EXTT8=
EXTT9=
PLAYORDER=
